<svg width="950" height="92" viewBox="0 0 950 92" fill="none" xmlns="http://www.w3.org/2000/svg">
<g clip-path="url(#clip0)">
<path d="M62.4865 74.8892L36.8873 39.9045V65.3713H47.0498V90.4844H0V65.3713H9.55146V26.2707H0V1.12544H36.9838L62.4865 36.3674L87.9892 1.12544H124.941V26.2707H115.421V65.3713H124.941V90.4844H77.891V65.3713H88.0535V39.9045L62.4865 74.8892Z" fill="#FFCF01"/>
<path d="M611.583 90.613V89.7127C612.708 89.7127 613.609 89.5519 613.609 88.6194C613.575 88.2819 613.511 87.9482 613.416 87.6226L612.901 85.9505H607.048L606.533 87.3653C606.399 87.7037 606.323 88.0626 606.308 88.4265C606.308 89.5841 607.563 89.6805 608.592 89.7127V90.613H601.709V89.7127C603.478 89.7127 604.025 89.2947 604.668 87.5261L609.171 75.1786L608.913 74.7927C610.07 74.4763 611.159 73.9535 612.129 73.2493C612.451 74.3747 612.483 74.5354 612.869 75.7252L616.567 87.0438C617.21 89.0375 617.532 89.5197 619.269 89.7127V90.613H611.583ZM610.103 77.2365L607.659 84.1498H612.579L610.103 77.2365ZM552.216 86.883C551.54 88.1719 550.515 89.2445 549.258 89.9781C548.001 90.7117 546.563 91.0766 545.108 91.031C543.99 91.0598 542.878 90.8559 541.843 90.4323C540.808 90.0088 539.873 89.3749 539.096 88.5707C538.318 87.7665 537.717 86.8097 537.329 85.7608C536.941 84.7119 536.776 83.594 536.843 82.4778C536.764 81.3472 536.917 80.2124 537.292 79.1428C537.667 78.0733 538.257 77.0916 539.024 76.2577C539.792 75.4239 540.722 74.7555 541.757 74.2935C542.792 73.8315 543.91 73.5856 545.044 73.5708C547.061 73.5308 549.021 74.2412 550.543 75.5644L551.669 74.5355V79.5838H550.929C550.571 78.4786 549.954 77.4751 549.128 76.6577C548.69 76.164 548.156 75.7642 547.559 75.4823C546.963 75.2005 546.315 75.0425 545.655 75.0178C542.632 75.0178 540.252 77.4938 540.252 81.8025C540.252 85.4682 542.214 88.9088 546.041 88.9088C547.045 88.9316 548.035 88.6725 548.899 88.1609C549.763 87.6494 550.466 86.9059 550.929 86.0148L552.216 86.883ZM555.013 90.5808V89.6805C556.911 89.5197 556.943 89.1017 556.943 87.494V78.78C556.943 77.6867 556.943 76.5934 556.943 76.0789C556.943 75.0821 556.396 74.9535 555.078 74.8248V73.9245H562.217V74.8248C560.834 74.8248 560.32 75.0178 560.127 75.9181C560.067 76.8389 560.067 77.7627 560.127 78.6835V80.9987C561.574 80.9987 562.571 80.9987 563.954 80.9987C565.337 80.9987 566.494 80.9987 567.909 80.9987V78.2012C567.909 75.1465 567.91 74.9857 565.594 74.9857V74.0852H572.83V74.9857C570.868 75.2108 570.868 75.2429 570.868 78.3941V85.4361C570.868 86.0792 570.868 88.2014 570.868 88.6516C570.868 89.1018 571.479 89.6805 572.701 89.8091V90.7095H565.305V89.8091C566.977 89.6162 567.427 89.5841 567.588 88.4265C567.588 87.9442 567.588 87.301 567.588 86.1113V83.0565C566.269 83.0565 565.176 83.0565 563.793 83.0565C562.41 83.0565 561.252 83.0565 559.805 83.0565V86.1113C559.805 89.5841 559.805 89.584 562.024 89.8091V90.7095L555.013 90.5808ZM575.564 90.5808V89.6805C577.204 89.4554 577.525 89.2947 577.557 87.5261V78.6513C577.557 75.2107 577.557 75.1142 575.564 74.8248V73.9245H582.51V74.8248C580.548 75.0178 580.548 75.1142 580.548 78.6513V85.4039C580.548 85.9827 580.548 87.8477 580.548 88.33C580.548 89.359 581.127 89.584 582.446 89.6805V90.5808H575.564ZM528.128 90.5808V89.6805C529.768 89.4554 530.09 89.2947 530.122 87.5261V78.6513C530.122 75.2107 530.122 75.1142 528.128 74.8248V73.9245H535.042V74.8248C533.081 75.0178 533.08 75.1142 533.08 78.6513V85.4039C533.08 85.9827 533.08 87.8477 533.08 88.33C533.08 89.359 533.691 89.584 534.978 89.6805V90.5808H528.128ZM517.644 90.5808V89.6805C519.734 89.6805 519.734 89.4554 519.766 86.465V78.0725L513.945 90.9346H512.466L507.128 78.0725V87.7191C507.128 89.359 507.321 89.6805 509.089 89.8091V90.7095H503.236V89.8091C504.587 89.8091 505.101 89.5519 505.198 88.4265C505.198 87.9763 505.198 86.5614 505.198 85.6611L505.455 78.6835C505.455 78.1369 505.455 77.333 505.455 76.7542C505.455 75.0821 505.101 74.9856 503.622 74.9535V74.0532H508.864L514.042 86.6901L519.766 74.0532H524.815V75.05C522.854 75.05 522.822 75.3715 522.854 77.9761V84.8251C522.854 85.9827 522.854 87.3975 522.854 88.2336C522.854 89.0696 523.4 89.6805 524.719 89.8091V90.7095L517.644 90.5808ZM620.555 90.5808V89.6805C621.938 89.6805 622.453 89.6806 622.645 88.6516C622.838 87.6226 622.935 77.6546 622.967 75.7896C622.666 75.4466 622.295 75.1716 621.879 74.9831C621.463 74.7946 621.012 74.6968 620.555 74.6962V73.7959H625.443C626.723 75.6938 628.108 77.5188 629.592 79.2623L634.223 85.018V77.558C634.223 74.9213 634.223 74.7927 631.489 74.6962V73.7959H637.921V74.6962C636.12 74.6962 635.96 75.0821 635.927 77.9117L635.702 90.7737H634.673L633.194 88.941C632.454 87.9763 631.682 87.0438 630.943 86.1113L624.511 78.0082V86.6258C624.511 89.3268 624.511 89.4233 627.212 89.8413V90.7417L620.555 90.5808ZM481.625 82.2206C481.716 83.3609 481.565 84.5076 481.183 85.5858C480.801 86.6641 480.195 87.6496 479.406 88.478C478.617 89.3064 477.662 89.9591 476.604 90.3935C475.545 90.8279 474.407 91.0341 473.263 90.9988C472.112 91.0308 470.966 90.8254 469.897 90.3955C468.829 89.9655 467.86 89.3203 467.052 88.4999C466.243 87.6795 465.612 86.7014 465.198 85.6266C464.784 84.5519 464.595 83.4034 464.644 82.2527C464.582 81.1222 464.754 79.991 465.15 78.9304C465.547 77.8698 466.158 76.9027 466.947 76.0901C467.736 75.2775 468.684 74.637 469.732 74.209C470.781 73.7809 471.906 73.5746 473.038 73.6029C474.174 73.5755 475.304 73.7817 476.357 74.2088C477.41 74.6359 478.364 75.2747 479.161 76.0857C479.957 76.8967 480.578 77.8626 480.985 78.9234C481.392 79.9843 481.577 81.1174 481.528 82.2527L481.625 82.2206ZM473.295 89.4555C473.96 89.4059 474.602 89.1918 475.163 88.8325C475.725 88.4733 476.188 87.9802 476.511 87.3975C477.571 85.7225 478.046 83.7438 477.862 81.7704C477.876 79.8332 477.204 77.9537 475.965 76.4648C475.584 76.0481 475.123 75.7134 474.609 75.4812C474.094 75.249 473.538 75.1241 472.974 75.1142C472.412 75.1393 471.862 75.2809 471.358 75.53C470.855 75.7791 470.408 76.1303 470.047 76.5612C468.83 78.0783 468.213 79.9889 468.311 81.9311C468.184 83.9016 468.716 85.8585 469.822 87.494C470.177 88.0789 470.671 88.567 471.26 88.9149C471.849 89.2627 472.515 89.4594 473.199 89.4876L473.295 89.4555ZM483.297 89.6484V90.5808H490.179V89.6484C488.443 89.6484 488.25 89.3268 488.185 87.494V82.7672H490.019C491.884 82.7672 492.881 82.9601 492.977 84.7929H493.588V79.3587H492.784C492.784 81.1594 492.205 81.3523 490.179 81.3523H487.992V75.5644C488.646 75.5191 489.301 75.5191 489.954 75.5644C493.17 75.5644 494.264 75.5644 494.714 78.169H495.55L495.261 74.0852H483.072V74.9857C484.262 74.9857 484.777 75.1786 484.969 75.9503C485.021 76.9572 485.021 77.966 484.969 78.9729V84.8251C484.969 85.2753 484.969 87.2688 484.969 87.6547C485.13 89.3589 484.905 89.5197 483.201 89.6805L483.297 89.6484ZM340.122 90.4523V89.5519C341.762 89.359 342.084 89.166 342.116 87.3975V78.5548C342.116 75.0821 342.116 74.9856 340.122 74.6962V73.7959H347.036V74.6962C345.107 74.8891 345.106 74.9856 345.106 78.5548V85.2752C345.106 85.854 345.106 87.7191 345.106 88.2336C345.106 89.2304 345.685 89.4555 346.972 89.5519V90.4523H340.122ZM413.51 90.4523V89.5519C415.118 89.359 415.472 89.166 415.472 87.3975V78.5548C415.472 75.0821 415.472 74.9856 413.51 74.6962V73.7959H420.425V74.6962C418.431 74.8891 418.431 74.9856 418.431 78.5548V85.2752C418.431 85.854 418.431 87.7191 418.431 88.2336C418.431 89.2304 419.01 89.4555 420.328 89.5519V90.4523H413.51ZM319.861 90.4523V89.5519C321.212 89.5519 321.726 89.5519 321.919 88.5229C322.112 87.494 322.241 77.558 322.241 75.8216C321.946 75.4768 321.582 75.1983 321.171 75.0043C320.761 74.8104 320.315 74.7053 319.861 74.6962V73.7959H324.846C326.261 75.7895 326.55 76.2397 328.995 79.2944L333.658 85.018V77.5902C333.658 74.9535 333.658 74.7927 330.924 74.6962V73.7959H337.356V74.6962C335.555 74.6962 335.394 75.1142 335.362 77.9117L335.137 90.7737H334.14L332.789 89.0052C332.018 88.0406 331.278 87.1081 330.506 86.2078L324.074 78.0725V86.7223C324.074 89.3911 324.267 89.4876 326.808 89.7449V90.6452L319.861 90.4523ZM399.746 85.2752H400.582C401.515 87.9763 403.026 89.4555 405.535 89.4555C407.304 89.4555 408.751 88.6837 408.751 86.9152C408.751 85.1467 406.918 84.2785 406.114 83.9248L404.088 83.1852C402.986 82.947 401.996 82.3448 401.279 81.4756C400.561 80.6064 400.157 79.5209 400.132 78.3941C400.134 77.7182 400.276 77.0501 400.549 76.4319C400.823 75.8138 401.221 75.259 401.72 74.8027C402.219 74.3464 402.807 73.9985 403.447 73.7809C404.087 73.5634 404.765 73.4809 405.438 73.5387C406.8 73.5393 408.131 73.9419 409.265 74.6962L410.294 73.9567L410.841 78.9085L410.005 79.0693C409.801 78.1706 409.406 77.3263 408.847 76.5934C408.468 76.1063 407.979 75.7155 407.42 75.4529C406.861 75.1903 406.248 75.0633 405.631 75.0821C403.862 75.0821 402.833 75.9181 402.833 77.2687C402.833 79.2301 404.795 79.9054 406.628 80.4842C407.466 80.7127 408.276 81.0363 409.04 81.4488C409.781 81.8803 410.395 82.5004 410.819 83.2459C411.242 83.9915 411.461 84.8359 411.452 85.6933C411.428 86.4271 411.256 87.1485 410.946 87.8139C410.635 88.4793 410.193 89.0748 409.646 89.5647C409.099 90.0545 408.458 90.4285 407.763 90.6639C407.067 90.8994 406.331 90.9914 405.599 90.9346C404.05 90.9586 402.532 90.4976 401.258 89.6162L399.875 88.6194L399.746 85.2752ZM427.114 90.4523V89.7449C428.658 89.7449 429.076 89.1661 429.076 87.8477V75.5644H427.017C425.12 75.5644 423.801 75.5645 423.801 78.4906H422.837V73.7959H437.952V78.4906H437.051C437.051 75.5001 435.669 75.5644 433.835 75.5644H431.745V87.8477C431.745 89.1661 432.163 89.7449 433.707 89.7449V90.4523H427.114ZM307.062 73.828V74.7284C304.875 74.8892 304.875 74.9856 304.842 78.5227V82.5742C304.638 84.4241 305.021 86.2914 305.936 87.912C306.288 88.3742 306.747 88.7443 307.274 88.9906C307.8 89.237 308.378 89.3524 308.959 89.3268C309.94 89.3952 310.912 89.1077 311.698 88.5171C312.483 87.9264 313.03 87.0722 313.236 86.1113C313.654 83.9946 313.816 81.8355 313.719 79.6803V76.4648C313.719 74.9535 312.818 74.9213 311.339 74.7927V73.8923H317.771V74.7927C316.195 74.7927 315.873 75.1143 315.777 76.7864C315.777 77.1722 315.552 81.8025 315.552 82.51C315.527 83.7635 315.387 85.0121 315.134 86.24C314.743 87.6765 313.865 88.9329 312.651 89.7949C311.437 90.6569 309.962 91.071 308.477 90.9667C306.947 90.9828 305.443 90.5707 304.135 89.7769C301.659 88.1049 301.627 85.5968 301.627 82.9279V79.1336C301.627 77.3329 301.627 76.5612 301.627 76.111C301.466 75.0821 300.951 74.857 299.697 74.7927V73.8923L307.062 73.828ZM366.107 73.828V74.7284C364.531 74.9856 364.274 75.4358 362.891 78.7156L357.81 90.8059H356.941L352.375 78.5548C351.249 75.3393 351.088 74.9856 349.448 74.7284V73.828H357.327V74.7284C355.977 74.7284 355.108 74.7284 355.108 75.7896C355.188 76.5748 355.383 77.3441 355.687 78.0725L358.581 86.5293L361.99 77.7832C362.221 77.2148 362.383 76.6211 362.473 76.0146C362.473 74.7927 361.283 74.7605 360.254 74.7284V73.828H366.107ZM445.091 90.4844V89.584C446.378 89.584 446.86 89.4232 447.214 89.0695C447.568 88.7158 447.568 88.2978 447.6 86.465V83.5388L443.162 76.6577C441.972 74.8892 441.94 74.8248 440.332 74.7284V73.828H449.015V74.7284C447.278 74.7284 446.506 74.7284 446.506 75.6287C446.603 76.2351 446.846 76.8089 447.214 77.3007L449.787 81.481L452.134 77.3329C452.461 76.8138 452.68 76.2342 452.777 75.6287C452.777 74.8248 452.102 74.7927 450.944 74.7284V73.828H457.376V74.7284C455.704 74.7284 455.222 75.2751 453.324 78.3941L450.719 82.735V86.2078C450.719 89.2304 450.719 89.4232 453.228 89.584V90.4844H445.091ZM380.386 90.4844C380.422 89.0426 380.541 87.604 380.74 86.1756H379.936C379.357 89.166 377.684 89.0052 375.272 89.0052C372.86 89.0052 372.635 88.4265 372.635 87.3332V82.5742H374.404C376.462 82.5742 377.041 82.7672 377.041 84.6322H377.813V79.3587H376.977C376.816 80.8057 376.527 81.3201 374.372 81.3201H372.571V75.468H374.597C377.459 75.468 378.456 75.6608 378.842 77.9117H379.582V73.9567H367.715V74.857C368.937 74.857 369.452 75.05 369.612 75.8538C369.681 76.8495 369.681 77.8486 369.612 78.8442V84.6965C369.612 85.1467 369.612 87.1724 369.612 87.5582C369.612 89.3589 369.355 89.5519 367.618 89.7127V90.613L380.386 90.4844ZM600.938 83.2495V84.1498C599.426 84.1498 599.426 84.6643 599.394 87.8155V89.0052C597.507 90.3144 595.258 91.0003 592.962 90.9667C590.642 91.0136 588.398 90.1372 586.725 88.5301C585.051 86.923 584.085 84.717 584.038 82.3974C583.991 80.0778 584.867 77.8345 586.475 76.1611C588.082 74.4877 590.288 73.5213 592.608 73.4744C594.71 73.4783 596.757 74.1419 598.461 75.3715L599.33 74.3747V79.5838H598.654C598.228 78.2949 597.501 77.1263 596.532 76.1754C595.662 75.3615 594.507 74.9226 593.316 74.9535C590.389 74.9535 587.977 77.3973 587.977 82.1884C587.977 86.0148 589.875 89.2946 593.123 89.2946C593.681 89.2924 594.231 89.1639 594.732 88.9189C595.233 88.6739 595.673 88.3186 596.017 87.8798C596.307 87.4088 596.421 86.8509 596.339 86.3042C596.339 84.182 595.985 84.1498 594.152 83.9569V83.0565L600.938 83.2495ZM388.136 81.5452C388.643 81.6589 389.16 81.7235 389.68 81.7382C390.494 81.7566 391.287 81.4804 391.913 80.9605C392.54 80.4405 392.957 79.7118 393.089 78.9085C393.089 76.9792 392.221 75.3071 389.133 75.3071C388.802 75.2708 388.468 75.2708 388.136 75.3071V81.5452ZM388.136 85.1788C388.136 89.0052 388.136 89.5197 390.162 89.584V90.4844H383.184V89.584C384.985 89.4232 385.178 89.1338 385.21 87.3653V79.3587C385.21 77.333 385.21 76.6577 385.21 76.1432C385.21 75.6287 384.631 75.0499 383.248 74.9213V74.021H390.677C394.793 74.021 396.08 75.9825 396.08 78.2976C396.074 79.2765 395.76 80.2288 395.183 81.0195C394.606 81.8101 393.795 82.3991 392.864 82.7029L395.823 87.8155C396.884 89.777 397.43 90.2271 398.781 90.4201V90.9667H397.688C396.426 91.0859 395.162 90.763 394.112 90.0533C393.062 89.3436 392.291 88.2911 391.931 87.0759L391.031 85.1145C390.034 83.0244 389.712 83.1531 388.136 83.1209V85.1788Z" fill="white"/>
<path d="M151.44 1.15758H150.154V90.5487H151.44V1.15758Z" fill="white"/>
<path d="M176.911 1.15755H185.08V83.6032H198.555V90.5487H176.911V1.15755Z" fill="white"/>
<path d="M224.7 13.4087C224.7 9.93592 223.832 7.33136 219.973 7.33136C216.114 7.33136 215.277 9.93592 215.277 13.4087V22.8301C215.189 25.6263 215.832 28.3972 217.143 30.8689L230.007 53.1523C231.958 56.4526 232.98 60.219 232.965 64.0529V78.169C233.147 79.9365 232.932 81.7222 232.336 83.3963C231.741 85.0704 230.78 86.5908 229.524 87.8471C228.267 89.1035 226.747 90.0642 225.072 90.6594C223.398 91.2546 221.612 91.4694 219.844 91.2882C210.807 91.2882 206.498 87.2046 206.498 78.169V65.8857H214.666V77.6545C214.666 81.8668 216.274 84.3427 219.844 84.3427C223.414 84.3427 224.797 81.8668 224.797 77.6545V65.1461C224.838 62.1407 224.024 59.1854 222.449 56.6251L210.582 35.6922C208.318 32.3277 207.109 28.3645 207.109 24.3092V13.5373C207.109 4.72677 211.676 0.417984 219.973 0.417984C229.138 0.417984 232.837 4.72676 232.837 12.9263V24.3092H224.668L224.7 13.4087Z" fill="white"/>
<path d="M264.803 65.7893H250.428L247.212 90.5487H239.011L252.165 1.15755H263.292L276.413 90.5487H268.148L264.803 65.7893ZM257.761 7.33137H257.503L251.296 58.7795H263.935L257.761 7.33137Z" fill="white"/>
<path d="M311.692 5.40203H298.089V1.22186H330.249V5.40203H316.709V56.8502H311.757L311.692 5.40203Z" fill="white"/>
<path d="M360.543 1.06108V5.40204H340.186V26.3028H359.482V30.483H340.186V52.9915H361.09V56.8502H335.362V1.06108H360.543Z" fill="white"/>
<path d="M366.268 29.0039C366.268 13.9231 366.268 0.0642853 383.12 0.0642853C396.659 0.0642853 396.916 11.1899 396.916 16.1418H391.931C391.931 9.9359 390.259 4.14799 383.12 4.14799C371.349 4.14799 371.22 14.116 371.22 28.9717C371.22 43.8273 371.22 53.7954 383.12 53.7954C389.552 53.7954 391.931 48.0718 392.028 40.9334H397.302C397.302 44.9528 396.369 58.0077 383.12 58.0077C366.396 58.0077 366.268 43.9881 366.268 29.0039Z" fill="white"/>
<path d="M404.184 56.8502V1.06108H409.137V26.1421H431.102V1.06108H436.055V56.8502H431.102V30.2258H409.137V56.8502H404.184Z" fill="white"/>
<path d="M445.638 56.8502V1.06108H453.228L475.9 50.1298L476.061 49.9689V1.06108H481.014V56.8502H473.521L450.751 7.2349L450.591 7.39564V56.8502H445.638Z" fill="white"/>
<path d="M506.452 0C523.175 0 523.304 13.9232 523.304 28.9396C523.304 43.956 523.304 57.8791 506.452 57.8791C489.601 57.8791 489.568 43.956 489.568 28.9396C489.568 13.9232 489.826 0 506.452 0ZM506.452 53.8276C518.223 53.8276 518.351 43.8595 518.351 29.0038C518.351 14.1482 518.351 4.18012 506.452 4.18012C494.553 4.18012 494.521 14.1482 494.521 29.0038C494.521 43.8595 494.778 53.8276 506.452 53.8276Z" fill="white"/>
<path d="M531.312 56.8502V1.06108H536.264V52.7665H554.692V56.8502H531.312Z" fill="white"/>
<path d="M575.789 0C592.512 0 592.673 13.9232 592.673 28.9396C592.673 43.956 592.512 57.8791 575.789 57.8791C559.066 57.8791 558.937 43.956 558.937 28.9396C558.937 13.9232 559.098 0 575.789 0ZM575.789 53.8276C587.559 53.8276 587.72 43.8595 587.72 29.0038C587.72 14.1482 587.72 4.18012 575.789 4.18012C563.857 4.18012 563.89 14.1482 563.89 29.0038C563.89 43.8595 564.05 53.8276 575.789 53.8276Z" fill="white"/>
<path d="M627.341 31.93H616.021V27.9106H632.294V55.8534C627.305 57.3989 622.111 58.1795 616.889 58.1685C598.719 58.1685 600.005 40.0009 600.005 29.229C600.005 18.457 598.719 0.289398 616.889 0.289398C627.566 0.289398 632.969 4.85542 632.969 15.6595H628.016C628.016 8.32817 624.8 4.46957 617.018 4.46957C604.958 4.46957 605.086 15.2093 605.086 29.2932C605.086 43.3772 605.086 54.117 617.018 54.117C620.569 54.1992 624.107 53.655 627.47 52.5092L627.341 31.93Z" fill="white"/>
<path d="M653.262 33.7307L637.471 1.06108H643.035L655.899 28.8431L669.277 1.06108H674.23L658.311 33.7307V56.8502H653.358L653.262 33.7307Z" fill="white"/>
<path d="M717.71 15.2415C717.549 8.32813 715.844 4.18012 708.255 4.18012C702.241 4.18012 698.446 6.27021 698.446 12.8298C698.446 21.1259 702.627 21.351 708.962 25.917C715.844 30.8689 722.887 32.348 722.887 43.1521C722.887 53.1523 717.774 58.0077 708.03 58.0077C697.127 58.0077 692.239 52.1234 692.722 41.2228H697.835C697.835 47.4288 698.285 53.8276 708.255 53.8276C714.687 53.8276 717.903 50.3549 717.903 43.9239C717.903 36.3674 712.886 34.2773 704.846 29.229C694.008 22.5729 693.526 19.2609 693.461 13.698C693.461 4.05152 699.507 0 708.608 0C720.218 0 722.694 7.17055 722.694 15.2415H717.71Z" fill="white"/>
<path d="M756.334 1.06108V5.40204H735.977V26.3028H755.272V30.483H735.977V52.9915H756.848V56.8502H731.12V1.06108H756.334Z" fill="white"/>
<path d="M767.847 29.8399V56.8502H762.894V1.06108H778.299C789.04 1.06108 791.774 4.63034 791.774 14.4698C791.774 21.4153 790.584 26.0777 783.091 27.7498V27.9106C790.905 29.5505 791.388 30.483 791.388 50.4192C791.388 52.5735 791.774 54.7279 791.902 56.8502H787.207C786.703 52.2261 786.445 47.5785 786.435 42.9271C786.435 40.5154 787.979 29.7435 777.205 29.7435L767.847 29.8399ZM767.847 25.6597H775.887C783.316 25.6597 786.821 23.7304 786.821 14.3733C786.821 6.72037 783.798 5.24125 777.977 5.24125H767.847V25.6597Z" fill="white"/>
<path d="M827.503 1.06108H832.295L816.826 56.8502H810.652L795.086 0.964615H800.36L813.578 50.9658L827.503 1.06108Z" fill="white"/>
<path d="M842.201 1.06108V56.8502H837.248V1.06108H842.201Z" fill="white"/>
<path d="M850.787 29.0039C850.787 13.9231 850.787 0.0642853 867.671 0.0642853C881.21 0.0642853 881.435 11.1899 881.435 16.1418H876.483C876.483 9.9359 874.778 4.14799 867.671 4.14799C855.901 4.14799 855.74 14.116 855.74 28.9717C855.74 43.8273 855.74 53.7954 867.671 53.7954C874.103 53.7954 876.483 48.0718 876.579 40.9334H881.821C881.821 44.9528 880.889 58.0077 867.671 58.0077C850.948 58.0077 850.787 43.9881 850.787 29.0039Z" fill="white"/>
<path d="M914.238 1.06108V5.40204H893.913V26.3028H913.209V30.483H893.913V52.9915H914.882V56.8502H889.154V1.06108H914.238Z" fill="white"/>
<path d="M944.822 15.2415C944.822 8.32813 942.957 4.18012 935.367 4.18012C929.321 4.18012 925.719 6.27021 925.719 12.8298C925.719 21.1259 929.868 21.351 936.236 25.917C943.118 30.8689 950.161 32.348 950.161 43.1521C950.161 53.1523 945.047 58.0077 935.303 58.0077C924.401 58.0077 919.513 52.1234 919.963 41.2228H925.076C925.076 47.4288 925.558 53.8276 935.528 53.8276C941.96 53.8276 945.176 50.3549 945.176 43.9239C945.176 36.3674 940.127 34.2773 932.087 29.229C921.249 22.5729 920.799 19.2609 920.735 13.698C920.735 4.05152 926.748 0 935.882 0C947.492 0 949.968 7.17055 949.968 15.2415H944.822Z" fill="white"/>
</g>
<defs>
<clipPath id="clip0">
<rect width="950" height="91.2883" fill="white"/>
</clipPath>
</defs>
</svg>
